<svg xmlns="http://www.w3.org/2000/svg" xmlns:xlink="http://www.w3.org/1999/xlink" width="55" height="55" viewBox="0 0 55 55">
  <defs>
    <clipPath id="clip-path">
      <path id="Path_900123" data-name="Path 900123" d="M51.413,0V18.22l14.624,9.339L80.661,18.22V0Z" transform="translate(-51.413)" fill="none"/>
    </clipPath>
    <clipPath id="clip-path-2">
      <rect id="Rectangle_404427" data-name="Rectangle 404427" width="47.066" height="39.153" fill="none"/>
    </clipPath>
  </defs>
  <g id="Group_1110278" data-name="Group 1110278" transform="translate(-448.051 -1321)">
    <g id="Group_1110268" data-name="Group 1110268" transform="translate(-164 -7344)">
      <rect id="Rectangle_404422" data-name="Rectangle 404422" width="55" height="55" transform="translate(612.051 8665)" fill="none"/>
    </g>
    <g id="Group_1110274" data-name="Group 1110274" transform="translate(451.984 1328.166)">
      <g id="Group_1110271" data-name="Group 1110271" transform="translate(8.909)">
        <g id="Group_1110270" data-name="Group 1110270" clip-path="url(#clip-path)">
          <path id="Path_900111" data-name="Path 900111" d="M110.378,56.952a6.743,6.743,0,1,1-6.744-6.743,6.744,6.744,0,0,1,6.744,6.743" transform="translate(-89.01 -41.509)" fill="#fff"/>
          <path id="Path_900112" data-name="Path 900112" d="M83.146,22.14l-2.893-.557a9.784,9.784,0,0,0-1.063-2.558l1.653-2.443a1.5,1.5,0,0,0-.181-1.9l-.6-.6a1.5,1.5,0,0,0-1.9-.181l-2.442,1.653A9.774,9.774,0,0,0,73.166,14.5L72.608,11.6a1.5,1.5,0,0,0-1.47-1.213h-.846A1.5,1.5,0,0,0,68.822,11.6L68.265,14.5a9.789,9.789,0,0,0-2.558,1.062l-2.443-1.653a1.5,1.5,0,0,0-1.9.181l-.6.6a1.5,1.5,0,0,0-.181,1.9l1.653,2.442a9.778,9.778,0,0,0-1.062,2.558l-2.893.558a1.5,1.5,0,0,0-1.213,1.47v.846a1.5,1.5,0,0,0,1.214,1.469l2.893.557a9.785,9.785,0,0,0,1.062,2.558l-1.653,2.443a1.5,1.5,0,0,0,.181,1.9l.6.6a1.5,1.5,0,0,0,1.9.181l2.442-1.653a9.784,9.784,0,0,0,2.558,1.062l.558,2.893a1.5,1.5,0,0,0,1.47,1.213h.846a1.5,1.5,0,0,0,1.469-1.213l.557-2.893a9.779,9.779,0,0,0,2.558-1.063l2.443,1.653a1.5,1.5,0,0,0,1.9-.181l.6-.6a1.5,1.5,0,0,0,.181-1.9l-1.653-2.442a9.779,9.779,0,0,0,1.062-2.558l2.893-.558a1.5,1.5,0,0,0,1.213-1.47V23.61a1.5,1.5,0,0,0-1.214-1.469M77.46,24.034a6.743,6.743,0,1,1-6.744-6.743,6.744,6.744,0,0,1,6.744,6.743" transform="translate(-56.092 -8.59)" fill="#e99500"/>
          <path id="Path_900113" data-name="Path 900113" d="M105.481,98.472a6.356,6.356,0,0,1-6.338-5.878c-.012.159-.02.318-.02.48a6.357,6.357,0,0,0,12.714,0c0-.161-.008-.32-.02-.478a6.356,6.356,0,0,1-6.336,5.878" transform="translate(-90.856 -76.549)" fill="#ffbd47"/>
          <path id="Path_900114" data-name="Path 900114" d="M77.288,122.346l-1.147,1.7a1.493,1.493,0,0,0-.257.86l1.552-2.294c-.051-.086-.1-.173-.149-.261" transform="translate(-71.644 -101.145)" fill="#ffbd47"/>
          <path id="Path_900115" data-name="Path 900115" d="M188.4,109.032l-.042.008q-.042.162-.089.323.068-.164.131-.331" transform="translate(-164.554 -90.138)" fill="#ffbd47"/>
          <path id="Path_900116" data-name="Path 900116" d="M183.154,61.723l-.506.747a9.788,9.788,0,0,1,1.062,2.558l2.893.557a1.5,1.5,0,0,1,1.214,1.469v.807a1.493,1.493,0,0,0,.357-.969v-.846a1.5,1.5,0,0,0-1.213-1.469l-2.893-.557a9.763,9.763,0,0,0-.914-2.3" transform="translate(-159.907 -51.027)" fill="#ffbd47"/>
          <path id="Path_900117" data-name="Path 900117" d="M62.092,61.723l.506.747a9.789,9.789,0,0,0-1.062,2.558l-2.893.557a1.5,1.5,0,0,0-1.214,1.469v.807a1.493,1.493,0,0,1-.357-.969v-.846a1.5,1.5,0,0,1,1.214-1.469l2.893-.557a9.763,9.763,0,0,1,.914-2.3" transform="translate(-56.091 -51.027)" fill="#ffbd47"/>
          <path id="Path_900118" data-name="Path 900118" d="M75.96,31.246l.6-.6a1.5,1.5,0,0,1,1.9-.181L80.9,32.119a9.777,9.777,0,0,1,2.558-1.062l.185-.961a9.789,9.789,0,0,0-2.386,1.015l-2.443-1.653a1.5,1.5,0,0,0-1.9.181l-.6.6a1.494,1.494,0,0,0-.437,1.1c.025-.03.051-.059.079-.087" transform="translate(-71.641 -24.141)" fill="#ffbd47"/>
          <path id="Path_900119" data-name="Path 900119" d="M125.64,11.4h.846a1.5,1.5,0,0,1,1.47,1.213l.558,2.893a9.775,9.775,0,0,1,2.558,1.062l2.442-1.653a1.5,1.5,0,0,1,1.9.181l.6.6a1.5,1.5,0,0,1,.438,1.037l.1-.148a1.5,1.5,0,0,0-.181-1.9l-.6-.6a1.5,1.5,0,0,0-1.9-.181l-2.442,1.653a9.786,9.786,0,0,0-2.558-1.062l-.558-2.893a1.5,1.5,0,0,0-1.47-1.213H126a1.5,1.5,0,0,0-1.469,1.214l-.073.38a1.5,1.5,0,0,1,1.186-.585" transform="translate(-111.797 -8.59)" fill="#ffbd47"/>
          <path id="Path_900120" data-name="Path 900120" d="M183.109,118.855q-.207.444-.455.864l1.653,2.442a1.49,1.49,0,0,1,.256.8,1.5,1.5,0,0,0,.1-1.81Z" transform="translate(-159.912 -98.259)" fill="#ffbd47"/>
          <path id="Path_900121" data-name="Path 900121" d="M145.583,149.751l-.484,2.513a1.493,1.493,0,0,0,.284-.628l.372-1.932c-.057.016-.114.033-.172.047" transform="translate(-128.865 -123.762)" fill="#ffbd47"/>
          <path id="Path_900122" data-name="Path 900122" d="M65.983,5.235a1.5,1.5,0,0,1,1.469,1.213l.558,2.893A9.771,9.771,0,0,1,70.568,10.4L73.011,8.75a1.5,1.5,0,0,1,1.9.181l.6.6a1.5,1.5,0,0,1,.181,1.9l-1.653,2.443A9.78,9.78,0,0,1,75.1,16.427l2.893.558A1.5,1.5,0,0,1,79.2,18.454V19.3a1.5,1.5,0,0,1-1.213,1.47l-2.893.558a9.786,9.786,0,0,1-1.062,2.558l1.653,2.443a1.5,1.5,0,0,1-.181,1.9l-.6.6a1.5,1.5,0,0,1-1.9.181L70.57,27.352a9.781,9.781,0,0,1-2.558,1.063l-.557,2.893a1.5,1.5,0,0,1-1.469,1.214h-.846a1.5,1.5,0,0,1-1.469-1.213l-.558-2.893a9.785,9.785,0,0,1-2.558-1.062l-2.442,1.653a1.5,1.5,0,0,1-1.9-.181l-.6-.6a1.5,1.5,0,0,1-.181-1.9l1.653-2.443a9.776,9.776,0,0,1-1.062-2.558l-2.893-.557A1.5,1.5,0,0,1,51.918,19.3v-.846a1.5,1.5,0,0,1,1.213-1.47l2.893-.558a9.78,9.78,0,0,1,1.062-2.558l-1.653-2.442a1.5,1.5,0,0,1,.181-1.9l.6-.6a1.5,1.5,0,0,1,1.9-.181L60.552,10.4A9.788,9.788,0,0,1,63.11,9.342l.557-2.894a1.5,1.5,0,0,1,1.469-1.214h.846Zm-.422,20.387h0a6.743,6.743,0,0,0,0-13.487h0a6.743,6.743,0,0,0,0,13.487m.422-21.468h-.846a2.581,2.581,0,0,0-2.53,2.089l-.433,2.246a10.859,10.859,0,0,0-1.563.649l-1.9-1.283a2.577,2.577,0,0,0-3.267.312l-.6.6a2.581,2.581,0,0,0-.312,3.267l1.283,1.9a10.885,10.885,0,0,0-.649,1.563l-2.245.433a2.581,2.581,0,0,0-2.089,2.531V19.3a2.581,2.581,0,0,0,2.09,2.53l2.245.433a10.876,10.876,0,0,0,.65,1.563l-1.283,1.9a2.581,2.581,0,0,0,.312,3.267l.6.6a2.577,2.577,0,0,0,3.267.312l1.9-1.283a10.876,10.876,0,0,0,1.563.649l.433,2.245a2.581,2.581,0,0,0,2.53,2.089h.846a2.581,2.581,0,0,0,2.53-2.09l.433-2.245a10.856,10.856,0,0,0,1.563-.649l1.9,1.282a2.577,2.577,0,0,0,3.267-.312l.6-.6a2.581,2.581,0,0,0,.312-3.267l-1.283-1.9a10.848,10.848,0,0,0,.649-1.563l2.245-.433A2.581,2.581,0,0,0,80.285,19.3v-.846a2.581,2.581,0,0,0-2.09-2.53L75.95,15.49a10.849,10.849,0,0,0-.65-1.563l1.283-1.9a2.581,2.581,0,0,0-.312-3.267l-.6-.6a2.577,2.577,0,0,0-3.267-.312l-1.9,1.283a10.849,10.849,0,0,0-1.563-.649l-.433-2.245a2.581,2.581,0,0,0-2.531-2.089m-.422,21.468V24.541a5.663,5.663,0,1,1,5.663-5.663,5.67,5.67,0,0,1-5.663,5.663Z" transform="translate(-50.937 -3.434)" fill="#483e2e"/>
        </g>
      </g>
      <g id="Group_1110273" data-name="Group 1110273">
        <g id="Group_1110272" data-name="Group 1110272" clip-path="url(#clip-path-2)">
          <path id="Path_900124" data-name="Path 900124" d="M3.26,73.133,9.877,62.9l8.718,5.634a1.877,1.877,0,0,1,.383,2.827c-.506.565-1.005,1.173-1.419,1.708,1.206.828,2.612,1.743,4.181,2.678,2.158,1.287,7.837,4.63,9.515,5.471l2.257-.485a2.16,2.16,0,0,1,1.626.3L37.7,82.683a2.159,2.159,0,0,1,.984,1.921l0,.033a2.158,2.158,0,0,1-.343,1.064l-2.509,3.882a2.159,2.159,0,0,1-.829.75l-.03.015a2.159,2.159,0,0,1-2.156-.108l-2.565-1.658a2.159,2.159,0,0,1-.939-1.36l-.485-2.257c-1.455-1.184-6.922-4.854-8.982-6.294-1.5-1.046-2.909-1.952-4.159-2.712-.318.6-.667,1.3-.974,2a1.877,1.877,0,0,1-2.734.812Z" transform="translate(-2.695 -51.996)" fill="#bcbcbc"/>
          <path id="Path_900125" data-name="Path 900125" d="M10.56,65.014l8.718,5.634c.027.018.051.037.077.056a1.878,1.878,0,0,0-.761-2.175L9.877,62.9,3.26,73.133l1.448.936Z" transform="translate(-2.695 -51.996)" fill="#fff"/>
          <path id="Path_900126" data-name="Path 900126" d="M153.443,201.454c-.079-.065-.173-.138-.275-.217l.076.355a2.157,2.157,0,0,0,.418.883Z" transform="translate(-126.626 -166.366)" fill="#bcbcbc"/>
          <path id="Path_900127" data-name="Path 900127" d="M171.528,167.531l-2.565-1.658a2.159,2.159,0,0,0-1.626-.3l-2.025.435-.175.175.587-.126a2.158,2.158,0,0,1,1.626.3l2.565,1.658a2.159,2.159,0,0,1,.984,1.921l0,.034a2.159,2.159,0,0,1-.343,1.063l-2.509,3.882a2.157,2.157,0,0,1-.457.5,2.154,2.154,0,0,0,1.211-.221l.03-.015a2.159,2.159,0,0,0,.829-.75l2.509-3.882a2.159,2.159,0,0,0,.343-1.063l0-.034a2.159,2.159,0,0,0-.984-1.921" transform="translate(-136.522 -136.844)" fill="#fff"/>
          <rect id="Rectangle_404425" data-name="Rectangle 404425" width="12.19" height="1.705" transform="matrix(0.543, -0.84, 0.84, 0.543, 4.363, 23.591)" fill="#999"/>
          <path id="Path_900128" data-name="Path 900128" d="M79.369,125.028c-.4.627-.731,1.293-1.1,1.938q1.252.8,2.611,1.688l1.207-1.867c-.954-.609-1.858-1.195-2.72-1.758" transform="translate(-64.708 -103.362)" fill="#999"/>
          <path id="Path_900129" data-name="Path 900129" d="M31.295,88.454a2.725,2.725,0,0,1-1.48-.435L27.25,86.362a2.708,2.708,0,0,1-1.185-1.716l-.442-2.06c-1.153-.9-4.053-2.891-6.4-4.5-.971-.665-1.809-1.239-2.392-1.646-1.167-.816-2.38-1.613-3.614-2.376-.244.48-.478.972-.68,1.426a2.441,2.441,0,0,1-3.557,1.058L.258,70.912a.565.565,0,0,1-.168-.781L6.707,59.894a.565.565,0,0,1,.781-.168l8.718,5.634a2.442,2.442,0,0,1,.5,3.678c-.331.37-.683.786-1.021,1.205,1.2.812,2.429,1.59,3.651,2.319,1.854,1.105,7.4,4.376,9.3,5.361l2.06-.443a2.7,2.7,0,0,1,2.051.376l2.565,1.658a2.732,2.732,0,0,1,1.242,2.424l0,.034a2.725,2.725,0,0,1-.433,1.342L33.611,87.2a2.729,2.729,0,0,1-1.046.946l-.029.015a2.722,2.722,0,0,1-1.242.3M12.992,72.7a.565.565,0,0,1,.293.082c1.431.87,2.841,1.789,4.19,2.732.578.4,1.415.977,2.383,1.64,2.481,1.7,5.569,3.814,6.633,4.679a.565.565,0,0,1,.2.32l.485,2.257a1.582,1.582,0,0,0,.693,1l2.565,1.658a1.6,1.6,0,0,0,1.592.08l.029-.015a1.6,1.6,0,0,0,.613-.554L35.171,82.7a1.6,1.6,0,0,0,.253-.785l0-.034a1.6,1.6,0,0,0-.727-1.418L32.134,78.8a1.582,1.582,0,0,0-1.2-.22l-2.257.485a.569.569,0,0,1-.372-.047c-1.741-.872-7.627-4.343-9.551-5.49-1.413-.842-2.83-1.75-4.211-2.7a.565.565,0,0,1-.127-.811c.459-.593.972-1.211,1.446-1.739a1.312,1.312,0,0,0-.268-1.975L7.349,60.981l-6,9.289L9.59,75.6a1.311,1.311,0,0,0,1.911-.567c.287-.648.64-1.37.992-2.032a.565.565,0,0,1,.5-.3" transform="translate(0 -49.301)" fill="#483e2e"/>
          <path id="Path_900130" data-name="Path 900130" d="M163.938,186.074a2.262,2.262,0,1,0-.672-3.128,2.262,2.262,0,0,0,.672,3.128" transform="translate(-134.674 -150.389)" fill="#fff"/>
          <path id="Path_900131" data-name="Path 900131" d="M166.523,183.94a2.262,2.262,0,1,0-.672-3.128,2.262,2.262,0,0,0,.672,3.128" transform="translate(-136.811 -148.625)" fill="#483e2e"/>
          <path id="Path_900132" data-name="Path 900132" d="M57.819,114.8a1.13,1.13,0,1,0-.336-1.562,1.13,1.13,0,0,0,.336,1.562" transform="translate(-47.372 -93.185)" fill="#483e2e"/>
          <path id="Path_900133" data-name="Path 900133" d="M22.5,85.181a.565.565,0,0,1-.474-.872l6.617-10.238a.565.565,0,0,1,.949.613L22.978,84.923a.565.565,0,0,1-.475.258" transform="translate(-18.137 -61.023)" fill="#483e2e"/>
          <path id="Path_900134" data-name="Path 900134" d="M72.719,122.6a.572.572,0,0,1-.311-.092c-.266-.172-.512-.137-.34-.4l1.843-2.863c.172-.266.221.014.488.186a.574.574,0,0,1,.17.794L73.2,122.332a.574.574,0,0,1-.483.263" transform="translate(-59.533 -98.483)" fill="#483e2e"/>
          <path id="Path_900135" data-name="Path 900135" d="M99.33,73.133,92.714,62.9,84,68.529a1.877,1.877,0,0,0-.383,2.827c.506.565,1.005,1.173,1.419,1.708-1.206.828-2.612,1.743-4.181,2.678-2.158,1.287-7.837,4.63-9.515,5.471l-2.257-.485a2.16,2.16,0,0,0-1.626.3l-2.565,1.658a2.159,2.159,0,0,0-.984,1.921l0,.033A2.16,2.16,0,0,0,64.25,85.7l2.509,3.882a2.159,2.159,0,0,0,.829.75l.03.015a2.159,2.159,0,0,0,2.156-.108l2.565-1.658a2.159,2.159,0,0,0,.939-1.36l.485-2.257c1.455-1.184,6.922-4.854,8.982-6.294,1.5-1.046,2.909-1.952,4.159-2.712.318.6.667,1.3.974,2a1.877,1.877,0,0,0,2.734.812Z" transform="translate(-52.829 -51.996)" fill="#bcbcbc"/>
          <path id="Path_900136" data-name="Path 900136" d="M183.8,65.014l-8.718,5.634c-.027.018-.051.037-.077.056a1.878,1.878,0,0,1,.761-2.175l8.718-5.634L191.1,73.133l-1.448.936Z" transform="translate(-144.599 -51.996)" fill="#fff"/>
          <path id="Path_900137" data-name="Path 900137" d="M115.81,201.454c.079-.065.173-.138.275-.217l-.076.355a2.159,2.159,0,0,1-.418.883Z" transform="translate(-95.561 -166.366)" fill="#bcbcbc"/>
          <path id="Path_900138" data-name="Path 900138" d="M64.889,167.531l2.565-1.658a2.159,2.159,0,0,1,1.626-.3l2.025.435.175.175-.587-.126a2.158,2.158,0,0,0-1.626.3L66.5,168.015a2.159,2.159,0,0,0-.984,1.921l0,.034a2.159,2.159,0,0,0,.343,1.063l2.509,3.882a2.156,2.156,0,0,0,.457.5,2.154,2.154,0,0,1-1.211-.221l-.03-.015a2.159,2.159,0,0,1-.829-.75L64.25,170.55a2.159,2.159,0,0,1-.343-1.063l0-.034a2.159,2.159,0,0,1,.984-1.921" transform="translate(-52.829 -136.844)" fill="#fff"/>
          <rect id="Rectangle_404426" data-name="Rectangle 404426" width="1.704" height="12.19" transform="matrix(0.84, -0.543, 0.543, 0.84, 34.656, 14.278)" fill="#999"/>
          <path id="Path_900139" data-name="Path 900139" d="M174.028,125.028c.4.627.731,1.293,1.1,1.938q-1.252.8-2.611,1.688l-1.207-1.867c.954-.609,1.858-1.195,2.72-1.758" transform="translate(-141.623 -103.362)" fill="#999"/>
          <path id="Path_900140" data-name="Path 900140" d="M65.905,88.454a2.721,2.721,0,0,1-1.241-.3l-.031-.016a2.728,2.728,0,0,1-1.045-.945L61.08,83.313a2.728,2.728,0,0,1-.433-1.342l0-.033a2.732,2.732,0,0,1,1.242-2.424l2.565-1.658a2.707,2.707,0,0,1,2.051-.375l2.06.443c1.9-.985,7.449-4.256,9.3-5.361,1.223-.729,2.449-1.508,3.651-2.319-.338-.419-.69-.835-1.021-1.205a2.441,2.441,0,0,1,.5-3.678l8.718-5.634a.565.565,0,0,1,.781.168L97.11,70.131a.565.565,0,0,1-.168.781l-8.718,5.634a2.442,2.442,0,0,1-3.558-1.058c-.2-.455-.436-.946-.679-1.426-1.234.764-2.448,1.561-3.614,2.376-.583.408-1.422.982-2.394,1.647-2.351,1.61-5.25,3.6-6.4,4.5l-.442,2.06a2.706,2.706,0,0,1-1.185,1.716l-2.565,1.658a2.726,2.726,0,0,1-1.48.435m.023-9.905a1.584,1.584,0,0,0-.862.256L62.5,80.463a1.6,1.6,0,0,0-.727,1.419l0,.034a1.594,1.594,0,0,0,.253.785l2.509,3.882a1.6,1.6,0,0,0,.612.553l.031.016a1.6,1.6,0,0,0,1.591-.08l2.565-1.658a1.583,1.583,0,0,0,.693-1l.485-2.257a.565.565,0,0,1,.2-.32c1.063-.865,4.15-2.979,6.631-4.678.969-.664,1.806-1.237,2.385-1.641,1.348-.942,2.757-1.861,4.189-2.732a.565.565,0,0,1,.792.217c.352.661.7,1.383.992,2.032a1.312,1.312,0,0,0,1.911.567l8.244-5.328-6-9.289-8.243,5.328a1.312,1.312,0,0,0-.268,1.975c.473.529.986,1.146,1.445,1.739a.565.565,0,0,1-.127.811c-1.381.947-2.8,1.855-4.211,2.7-1.924,1.147-7.809,4.618-9.551,5.49a.571.571,0,0,1-.372.047l-2.257-.485a1.6,1.6,0,0,0-.338-.036" transform="translate(-50.134 -49.301)" fill="#483e2e"/>
          <path id="Path_900141" data-name="Path 900141" d="M86.087,186.074a2.262,2.262,0,1,1,.672-3.128,2.262,2.262,0,0,1-.672,3.128" transform="translate(-68.284 -150.389)" fill="#fff"/>
          <path id="Path_900142" data-name="Path 900142" d="M83.5,183.94a2.262,2.262,0,1,1,.672-3.128,2.262,2.262,0,0,1-.672,3.128" transform="translate(-66.147 -148.625)" fill="#483e2e"/>
          <path id="Path_900143" data-name="Path 900143" d="M203.009,114.8a1.13,1.13,0,1,1,.336-1.562,1.13,1.13,0,0,1-.336,1.562" transform="translate(-166.389 -93.185)" fill="#483e2e"/>
          <path id="Path_900144" data-name="Path 900144" d="M212.151,85.181a.565.565,0,0,1-.475-.258L205.06,74.685a.565.565,0,0,1,.949-.613l6.616,10.238a.565.565,0,0,1-.474.872" transform="translate(-169.451 -61.023)" fill="#483e2e"/>
          <path id="Path_900145" data-name="Path 900145" d="M186.247,122.6a.572.572,0,0,0,.311-.092c.266-.172.512-.137.34-.4l-1.843-2.863c-.172-.266-.221.014-.488.186a.574.574,0,0,0-.17.794l1.368,2.117a.574.574,0,0,0,.483.263" transform="translate(-152.367 -98.483)" fill="#483e2e"/>
        </g>
      </g>
    </g>
  </g>
</svg>
